<mxfile modified="2019-11-04T07:13:04.268Z" host="www.draw.io" agent="Mozilla/5.0 (Windows NT 6.1; Win64; x64) AppleWebKit/537.36 (KHTML, like Gecko) Chrome/77.0.3865.120 Safari/537.36" etag="_pJI_xAaDkB286VIQqq0" version="12.1.9" type="github" pages="3"><diagram name="위험단어" id="74e2e168-ea6b-b213-b513-2b3c1d86103e">5Vvfc5s4EP5r9NgMIATi0dhJ72Z6d52m1x9PNwooNldsPBgndv76k0DCSMIxtsHOtelD0UossNr99O1KBnA837zPyXL2RxbTFDhWvAFwAhzHdi3M/uOSbSXxsRBM8ySuRNZOcJ+8UHGnlK6TmK6ErBIVWZYWyVIVRtliQaNCkZE8z57VYY9ZGiuCJZlSQ3AfkdSUfk3iYiakthfsOn6jyXQmHo0dv+p4INGPaZ6tF+J5i2xBq545kWrEN65mJM6eGyJ4C+A4z7KiuppvxjTlZlUtdrent37lnC6KLjf4PvWiwH+0Ay8mGMN3QsMTSdfCDCEpohkTgdsxCMYAu+B2AgIfBBjchgCHYITLLg+ErvioYittuHpO5ilhnw/DWTFPmdBml9EsSeMPZJut+UuuCmYv2QpZKy+EM7CHwrA0JOXvy1u1wXgjJQ80DWtrj7M0y1lXaW+uKc9+UCkEDrTKv7pHTip/o8ckTRsjH8s/Ls8WxR2ZJyn34S80j8mCCLF4Ryyabc8haTJdMFnEZoOyztCcHmlvmhd00xCJ6XpPszkt8i0bInp94TkiqFzRfN55aOAJ2azhnD4SQiKiYlpr3rkHuxAe0tFbHMNbJqQgyywvSNrRF4z5Nm2010kPG01YyTGtZLdaCfZgJTQZ3/2dFj5KPj294C/hy2JWtFiqjKt7mrOvAI6Xct9/4FdTftUt2FhMjkDoAFwGJ4YAB4bVd+HDrf08Swp6vyQR731muK1ORgfbO51tv1FtL6bCw+ZUOC1T4Q01E7ZvTEUna3NTW9zUrWZn4wOrvHHMNeBKg8Ml8M6YlIbJ22aErJbVgvaYbPjUcdRb8v5klX1iPWQx5ZpUdPpMZtlcA6dgoDlFypRC2zHnFLXMaTDYnGJzTnWb00U84qyA43FKVqskUn2/kzGZDfPtN7783CDZ/F42LQilYLIR61PV2jZbH2mesG/mq0El3CRFQx9rfRfvw693mnhDKuo+o6tsnUf0MCwxDJ7SokPQ0FjhTKaDNFygzQOkLKcpKZInlWm1uYV4wscsYd9a+x9UMcWBjqqh+m5xU5P+aHqwqsfGmp7KLoae0kfrjz5jUXBboKgEHo431UVQIsotR5eKg40YzCDeG0K5CDChzcGJo9cI4PF5i8DVUEVbKRCyr7xUOHuWCgxkKnMxfDmELa0wYt0EyHsVSnhDh6Qe4UXCxkF8gW5HfBGu8s66cbHjqdFrkrzLQZCL+oEg1+oGQTs9cmD2+Liig8AUbIMpFgYTAVOjOxDiEogYCWKgZJdCmw9QuGqJYweYUc7i4mG96oBSasZ26/F/bwi9XLkmHUIvPBR6QdQ+bagkuuXqgrHAs5GZur9BPLsYLZIefxC3nFNwy3dU9nJR3Ap0vMGMuga7P+80GNPVuleFMWPioREK82wxzSah4fbXqFLIXk+jtVevWphm21fbEQlqtE0TxjTzw/j9UFHSDw+1oK7j/bUumBYKOtck4LGWlsxSzx8alm4z9HBQbf2shtaKP7Z7MUMbL2+ymA/ZdMqrb28HAqDz1iBgv9UsWbzUiUOaJssVbZStojRbx71UH91jDarnlKb/XZaUyVLZOZWqBqmyPbUKhdAhYvVaEcoGzdwRncu2hPf3VoTqyrUGJlJyOzM4MePTMNHvSJX6yuZsc1FneugTn0djH6JM5UKPZwxVfrcrio9FGsETPfYm1ujj7+WYCc8nwnIMuzEwi1EscgvVoXO6Sl7IQzmA+9aSf3tpDRQCNGnbSeMIkEQkHYmOeRLHZU18z55gc1PPdN3XQ1UHm3rLWbwyaO7d7mH9tqwYiVmXwXEmm7dVIiPndviagN2SXA6dQTZK7BVCeeeAnXXjd88tY7Ka1fXTK0AffBvQ116zck6tfdl6Hb9j8Yt5Fdk2hgm8eCVK1OdASzkVwS4qjf1GiGdGSG+7ulfHUC1K20O5K9BKLOkFaAO/H2h1tdRFc80BoTXolSIibaMyOIkidse8/wuNk44mwUtig079u4IZ9IIbx2r8qZvktoMHwTbX8lrff1Bsc8x6hUQytwStsOKEvzR9lGH8humjVgd7J482Dg9y9cG30zYnru4Eva5/fXqKjzxnCFd5BzVfuZyrtCSsR5+SGCQ1OWGTql6YbXVVdg6tyrMsT17Y84l8xX/X8+W9+CKSR7JCKT+rPgTLZHcJt/hkd/S14dEQisOqQ6U4sCMtOHYrzbqByNNQseU07IDUwSgu6ulL5zzIPaCoJ66gc1qEvf1c4aInDPasBl1ypX0noiyRQDFUGKE9J2yrEwxMfygpygRgm6MIZyaWXILkMDYmrLoQCMdyPHsTVCpBFZMpCZDLb+e9UByD4NpswYJGAQhcqXkshEwzu53f63FSdCxi7Q/sg1hmO0rGoFWUr7NT37mA0nWnXpYajtipZ2EYKPHimgfSfqIC87FoolWBPN/tAib1Rpd6s3bsYECoaSvLtJ5b8sFoLPMX+XOdt8sgfnX6cOwJQpZTuYGr0YfLxLdcjbXsC+px2pk+aAGP9EM8vdEH9YVdcZDpkvQh+2J/DZ+sz9/+/NuH/0To5fvnry0/WrvgMd2jy2snbLaeWZLr77zb8cfdHMvyFa+57DFd7VwaOjXGdD1Ye5MzzredW/Fzg1fC8HCIsebu96bV8N3veeHtfw==</diagram><diagram id="h5OtPM2n08AeqgdCQOv6" name="실패의심 컨텐츠"><mxGraphModel dx="1422" dy="795" grid="0" gridSize="10" guides="1" tooltips="1" connect="1" arrows="1" fold="1" page="1" pageScale="1" pageWidth="1169" pageHeight="827" math="0" shadow="0">&#xa;      <root>&#xa;        <mxCell id="3esrChGUVjocIgXQ-gZ4-0"/>&#xa;        <mxCell id="3esrChGUVjocIgXQ-gZ4-1" parent="3esrChGUVjocIgXQ-gZ4-0"/>&#xa;        <mxCell id="jahqhl8VbFO5xxWAI4NQ-0" value="Batch 실패의심" style="swimlane;html=1;childLayout=stackLayout;startSize=20;rounded=0;shadow=0;labelBackgroundColor=none;strokeColor=#000000;strokeWidth=1;fillColor=#ffffff;fontFamily=Verdana;fontSize=8;fontColor=#000000;align=center;" parent="3esrChGUVjocIgXQ-gZ4-1" vertex="1">&#xa;          <mxGeometry x="70" y="40" width="973" height="728" as="geometry"/>&#xa;        </mxCell>&#xa;        <mxCell id="jahqhl8VbFO5xxWAI4NQ-1" value="Dataportal" style="swimlane;html=1;startSize=20;" parent="jahqhl8VbFO5xxWAI4NQ-0" vertex="1">&#xa;          <mxGeometry y="20" width="679" height="708" as="geometry"/>&#xa;        </mxCell>&#xa;        <mxCell id="IzP-O1htUlhFbYvpEmA1-1" value="상담사로 연결이&lt;br&gt;되었는가?" style="html=1;whiteSpace=wrap;aspect=fixed;shape=isoRectangle;fontFamily=Tahoma;fontSize=9;" parent="jahqhl8VbFO5xxWAI4NQ-1" vertex="1">&#xa;          <mxGeometry x="30" y="167" width="100" height="60" as="geometry"/>&#xa;        </mxCell>&#xa;        <mxCell id="uLK2PnLPbNvofkBEclOP-0" value="상담사 가로채기가&lt;br&gt;일어났는가?" style="html=1;whiteSpace=wrap;aspect=fixed;shape=isoRectangle;fontFamily=Tahoma;fontSize=9;" parent="jahqhl8VbFO5xxWAI4NQ-1" vertex="1">&#xa;          <mxGeometry x="30" y="259" width="100" height="60" as="geometry"/>&#xa;        </mxCell>&#xa;        <mxCell id="uLK2PnLPbNvofkBEclOP-3" value="아니오" style="endArrow=classic;html=1;fontFamily=Tahoma;fontSize=9;entryX=0.5;entryY=0.033;entryDx=0;entryDy=0;entryPerimeter=0;" parent="jahqhl8VbFO5xxWAI4NQ-1" source="IzP-O1htUlhFbYvpEmA1-1" target="uLK2PnLPbNvofkBEclOP-0" edge="1">&#xa;          <mxGeometry x="-0.176" y="18" width="50" height="50" relative="1" as="geometry">&#xa;            <mxPoint x="90" y="138" as="sourcePoint"/>&#xa;            <mxPoint x="90" y="170.97000000000003" as="targetPoint"/>&#xa;            <mxPoint as="offset"/>&#xa;          </mxGeometry>&#xa;        </mxCell>&#xa;        <mxCell id="uLK2PnLPbNvofkBEclOP-22" value="실패의심 컨텐츠&lt;br&gt;확정" style="rounded=1;whiteSpace=wrap;html=1;" parent="jahqhl8VbFO5xxWAI4NQ-1" vertex="1">&#xa;          <mxGeometry x="330.5" y="164" width="120" height="60" as="geometry"/>&#xa;        </mxCell>&#xa;        <mxCell id="uLK2PnLPbNvofkBEclOP-28" value="예" style="endArrow=classic;html=1;exitX=0.983;exitY=0.493;exitDx=0;exitDy=0;exitPerimeter=0;entryX=-0.001;entryY=0.539;entryDx=0;entryDy=0;entryPerimeter=0;" parent="jahqhl8VbFO5xxWAI4NQ-1" source="IzP-O1htUlhFbYvpEmA1-1" target="uLK2PnLPbNvofkBEclOP-22" edge="1">&#xa;          <mxGeometry x="-0.9233" y="10" width="50" height="50" relative="1" as="geometry">&#xa;            <mxPoint x="131.60000000000002" y="187.57999999999998" as="sourcePoint"/>&#xa;            <mxPoint x="180.68000000000006" y="187.09999999999997" as="targetPoint"/>&#xa;            <mxPoint as="offset"/>&#xa;          </mxGeometry>&#xa;        </mxCell>&#xa;        <mxCell id="uLK2PnLPbNvofkBEclOP-30" value="예" style="endArrow=classic;html=1;exitX=1;exitY=0.483;exitDx=0;exitDy=0;exitPerimeter=0;entryX=-0.001;entryY=0.556;entryDx=0;entryDy=0;entryPerimeter=0;" parent="jahqhl8VbFO5xxWAI4NQ-1" target="uLK2PnLPbNvofkBEclOP-22" edge="1">&#xa;          <mxGeometry x="-0.5872" y="-8" width="50" height="50" relative="1" as="geometry">&#xa;            <mxPoint x="130.0000000000001" y="288.98" as="sourcePoint"/>&#xa;            <mxPoint x="330" y="185" as="targetPoint"/>&#xa;            <Array as="points">&#xa;              <mxPoint x="141" y="289"/>&#xa;              <mxPoint x="141" y="197"/>&#xa;            </Array>&#xa;            <mxPoint as="offset"/>&#xa;          </mxGeometry>&#xa;        </mxCell>&#xa;        <mxCell id="7AJ2RKkAXtvaKtOmxpjU-25" value="Logger Session++" style="rounded=1;whiteSpace=wrap;html=1;" parent="jahqhl8VbFO5xxWAI4NQ-1" vertex="1">&#xa;          <mxGeometry x="31" y="105" width="98" height="41" as="geometry"/>&#xa;        </mxCell>&#xa;        <mxCell id="7AJ2RKkAXtvaKtOmxpjU-27" value="" style="endArrow=classic;html=1;exitX=0.5;exitY=1;exitDx=0;exitDy=0;entryX=0.503;entryY=0.012;entryDx=0;entryDy=0;entryPerimeter=0;" parent="jahqhl8VbFO5xxWAI4NQ-1" source="7AJ2RKkAXtvaKtOmxpjU-25" target="IzP-O1htUlhFbYvpEmA1-1" edge="1">&#xa;          <mxGeometry width="50" height="50" relative="1" as="geometry">&#xa;            <mxPoint x="90" y="95" as="sourcePoint"/>&#xa;            <mxPoint x="90" y="116" as="targetPoint"/>&#xa;          </mxGeometry>&#xa;        </mxCell>&#xa;        <mxCell id="7AJ2RKkAXtvaKtOmxpjU-33" value="큐레이터 지정&lt;br&gt;(배치허용된 큐레이터 균등배분)" style="rounded=1;whiteSpace=wrap;html=1;" parent="jahqhl8VbFO5xxWAI4NQ-1" vertex="1">&#xa;          <mxGeometry x="505" y="164" width="120" height="60" as="geometry"/>&#xa;        </mxCell>&#xa;        <mxCell id="7AJ2RKkAXtvaKtOmxpjU-36" value="" style="endArrow=classic;html=1;entryX=0;entryY=0.5;entryDx=0;entryDy=0;exitX=1;exitY=0.5;exitDx=0;exitDy=0;" parent="jahqhl8VbFO5xxWAI4NQ-1" source="uLK2PnLPbNvofkBEclOP-22" target="7AJ2RKkAXtvaKtOmxpjU-33" edge="1">&#xa;          <mxGeometry width="50" height="50" relative="1" as="geometry">&#xa;            <mxPoint x="519" y="319" as="sourcePoint"/>&#xa;            <mxPoint x="569" y="269" as="targetPoint"/>&#xa;          </mxGeometry>&#xa;        </mxCell>&#xa;        <mxCell id="Pp3vwaVYBHKoFkX73i0J-2" value="Search 가&lt;br&gt;일어났는가" style="html=1;whiteSpace=wrap;aspect=fixed;shape=isoRectangle;fontFamily=Tahoma;fontSize=9;" parent="jahqhl8VbFO5xxWAI4NQ-1" vertex="1">&#xa;          <mxGeometry x="144" y="408" width="100" height="60" as="geometry"/>&#xa;        </mxCell>&#xa;        <mxCell id="Pp3vwaVYBHKoFkX73i0J-4" value="Search 중에&lt;br&gt;비슷한 증상이 없습니다를 선택하였는가?" style="html=1;whiteSpace=wrap;aspect=fixed;shape=isoRectangle;fontFamily=Tahoma;fontSize=9;" parent="jahqhl8VbFO5xxWAI4NQ-1" vertex="1">&#xa;          <mxGeometry x="145" y="522.5" width="100" height="60" as="geometry"/>&#xa;        </mxCell>&#xa;        <mxCell id="Pp3vwaVYBHKoFkX73i0J-5" value="학습중입니다" style="rounded=1;whiteSpace=wrap;html=1;" parent="jahqhl8VbFO5xxWAI4NQ-1" vertex="1">&#xa;          <mxGeometry x="225.5" y="287" width="120" height="60" as="geometry"/>&#xa;        </mxCell>&#xa;        <mxCell id="Pp3vwaVYBHKoFkX73i0J-6" value="예" style="endArrow=classic;html=1;entryX=0.25;entryY=1;entryDx=0;entryDy=0;exitX=0.999;exitY=0.503;exitDx=0;exitDy=0;exitPerimeter=0;fillColor=#f8cecc;strokeColor=#b85450;" parent="jahqhl8VbFO5xxWAI4NQ-1" source="Pp3vwaVYBHKoFkX73i0J-4" target="uLK2PnLPbNvofkBEclOP-22" edge="1">&#xa;          <mxGeometry x="-0.5872" y="-8" width="50" height="50" relative="1" as="geometry">&#xa;            <mxPoint x="283" y="551" as="sourcePoint"/>&#xa;            <mxPoint x="479.3800000000001" y="345.3599999999999" as="targetPoint"/>&#xa;            <Array as="points">&#xa;              <mxPoint x="361" y="553"/>&#xa;            </Array>&#xa;            <mxPoint as="offset"/>&#xa;          </mxGeometry>&#xa;        </mxCell>&#xa;        <mxCell id="Pp3vwaVYBHKoFkX73i0J-7" value="예" style="endArrow=classic;html=1;entryX=0.499;entryY=0.033;entryDx=0;entryDy=0;entryPerimeter=0;exitX=0.5;exitY=1;exitDx=0;exitDy=0;exitPerimeter=0;" parent="jahqhl8VbFO5xxWAI4NQ-1" target="Pp3vwaVYBHKoFkX73i0J-4" edge="1">&#xa;          <mxGeometry x="-0.2218" y="14" width="50" height="50" relative="1" as="geometry">&#xa;            <mxPoint x="195" y="468" as="sourcePoint"/>&#xa;            <mxPoint x="270" y="519" as="targetPoint"/>&#xa;            <mxPoint as="offset"/>&#xa;          </mxGeometry>&#xa;        </mxCell>&#xa;        <mxCell id="Pp3vwaVYBHKoFkX73i0J-8" value="아니오" style="endArrow=classic;html=1;exitX=0.995;exitY=0.48;exitDx=0;exitDy=0;exitPerimeter=0;entryX=0.5;entryY=1;entryDx=0;entryDy=0;" parent="jahqhl8VbFO5xxWAI4NQ-1" target="Pp3vwaVYBHKoFkX73i0J-5" edge="1">&#xa;          <mxGeometry x="0.2739" y="-19" width="50" height="50" relative="1" as="geometry">&#xa;            <mxPoint x="244.5" y="437.79999999999995" as="sourcePoint"/>&#xa;            <mxPoint x="297.5" y="392" as="targetPoint"/>&#xa;            <mxPoint as="offset"/>&#xa;            <Array as="points">&#xa;              <mxPoint x="286" y="438"/>&#xa;            </Array>&#xa;          </mxGeometry>&#xa;        </mxCell>&#xa;        <mxCell id="Pp3vwaVYBHKoFkX73i0J-10" value="" style="endArrow=classic;html=1;entryX=0;entryY=0.75;entryDx=0;entryDy=0;exitX=0.5;exitY=0;exitDx=0;exitDy=0;fillColor=#f8cecc;strokeColor=#b85450;" parent="jahqhl8VbFO5xxWAI4NQ-1" source="Pp3vwaVYBHKoFkX73i0J-5" target="uLK2PnLPbNvofkBEclOP-22" edge="1">&#xa;          <mxGeometry x="-0.0923" y="7" width="50" height="50" relative="1" as="geometry">&#xa;            <mxPoint x="297" y="332" as="sourcePoint"/>&#xa;            <mxPoint x="330.5" y="194.9999999999999" as="targetPoint"/>&#xa;            <mxPoint y="1" as="offset"/>&#xa;            <Array as="points">&#xa;              <mxPoint x="286" y="209"/>&#xa;            </Array>&#xa;          </mxGeometry>&#xa;        </mxCell>&#xa;        <mxCell id="Pp3vwaVYBHKoFkX73i0J-13" value="아니오" style="endArrow=classic;html=1;entryX=0.003;entryY=0.497;entryDx=0;entryDy=0;exitX=0.509;exitY=0.986;exitDx=0;exitDy=0;exitPerimeter=0;entryPerimeter=0;" parent="jahqhl8VbFO5xxWAI4NQ-1" source="Pp3vwaVYBHKoFkX73i0J-4" target="Pp3vwaVYBHKoFkX73i0J-14" edge="1">&#xa;          <mxGeometry x="-0.4923" y="23" width="50" height="50" relative="1" as="geometry">&#xa;            <mxPoint x="278" y="587" as="sourcePoint"/>&#xa;            <mxPoint x="195" y="625.5" as="targetPoint"/>&#xa;            <mxPoint as="offset"/>&#xa;            <Array as="points">&#xa;              <mxPoint x="196" y="655"/>&#xa;            </Array>&#xa;          </mxGeometry>&#xa;        </mxCell>&#xa;        <mxCell id="Pp3vwaVYBHKoFkX73i0J-14" value="해결되셨나요?" style="html=1;whiteSpace=wrap;aspect=fixed;shape=isoRectangle;fontFamily=Tahoma;fontSize=9;" parent="jahqhl8VbFO5xxWAI4NQ-1" vertex="1">&#xa;          <mxGeometry x="340.5" y="625.5" width="100" height="60" as="geometry"/>&#xa;        </mxCell>&#xa;        <mxCell id="Pp3vwaVYBHKoFkX73i0J-18" value="평가점수가 1점 혹은 2점인가?" style="html=1;whiteSpace=wrap;aspect=fixed;shape=isoRectangle;fontFamily=Tahoma;fontSize=9;" parent="jahqhl8VbFO5xxWAI4NQ-1" vertex="1">&#xa;          <mxGeometry x="490" y="625.5" width="100" height="60" as="geometry"/>&#xa;        </mxCell>&#xa;        <mxCell id="Pp3vwaVYBHKoFkX73i0J-19" value="예" style="endArrow=classic;html=1;entryX=-0.005;entryY=0.499;entryDx=0;entryDy=0;entryPerimeter=0;exitX=0.995;exitY=0.499;exitDx=0;exitDy=0;exitPerimeter=0;" parent="jahqhl8VbFO5xxWAI4NQ-1" source="Pp3vwaVYBHKoFkX73i0J-14" target="Pp3vwaVYBHKoFkX73i0J-18" edge="1">&#xa;          <mxGeometry x="-0.0303" y="9" width="50" height="50" relative="1" as="geometry">&#xa;            <mxPoint x="445" y="591" as="sourcePoint"/>&#xa;            <mxPoint x="499" y="602" as="targetPoint"/>&#xa;            <mxPoint as="offset"/>&#xa;          </mxGeometry>&#xa;        </mxCell>&#xa;        <mxCell id="Pp3vwaVYBHKoFkX73i0J-21" value="예" style="endArrow=classic;html=1;exitX=0.495;exitY=0.017;exitDx=0;exitDy=0;entryX=0.75;entryY=1;entryDx=0;entryDy=0;exitPerimeter=0;fillColor=#f8cecc;strokeColor=#b85450;" parent="jahqhl8VbFO5xxWAI4NQ-1" source="Pp3vwaVYBHKoFkX73i0J-18" target="uLK2PnLPbNvofkBEclOP-22" edge="1">&#xa;          <mxGeometry x="-0.2552" y="9" width="50" height="50" relative="1" as="geometry">&#xa;            <mxPoint x="149" y="599" as="sourcePoint"/>&#xa;            <mxPoint x="253" y="594.02" as="targetPoint"/>&#xa;            <mxPoint as="offset"/>&#xa;            <Array as="points">&#xa;              <mxPoint x="540" y="550"/>&#xa;              <mxPoint x="421" y="550"/>&#xa;            </Array>&#xa;          </mxGeometry>&#xa;        </mxCell>&#xa;        <mxCell id="Pp3vwaVYBHKoFkX73i0J-22" value="성공" style="rounded=1;whiteSpace=wrap;html=1;fillColor=#d5e8d4;strokeColor=#82b366;" parent="jahqhl8VbFO5xxWAI4NQ-1" vertex="1">&#xa;          <mxGeometry x="555" y="442.5" width="120" height="60" as="geometry"/>&#xa;        </mxCell>&#xa;        <mxCell id="Pp3vwaVYBHKoFkX73i0J-23" value="아니오" style="endArrow=classic;html=1;exitX=1;exitY=0.516;exitDx=0;exitDy=0;exitPerimeter=0;entryX=0.5;entryY=1;entryDx=0;entryDy=0;fillColor=#f8cecc;strokeColor=#b85450;" parent="jahqhl8VbFO5xxWAI4NQ-1" edge="1">&#xa;          <mxGeometry x="-0.1083" y="-25" width="50" height="50" relative="1" as="geometry">&#xa;            <mxPoint x="590" y="655.46" as="sourcePoint"/>&#xa;            <mxPoint x="615" y="501.5" as="targetPoint"/>&#xa;            <mxPoint as="offset"/>&#xa;            <Array as="points">&#xa;              <mxPoint x="615" y="655"/>&#xa;            </Array>&#xa;          </mxGeometry>&#xa;        </mxCell>&#xa;        <mxCell id="Pp3vwaVYBHKoFkX73i0J-24" value="맞나요?" style="html=1;whiteSpace=wrap;aspect=fixed;shape=isoRectangle;fontFamily=Tahoma;fontSize=9;" parent="jahqhl8VbFO5xxWAI4NQ-1" vertex="1">&#xa;          <mxGeometry x="31" y="351" width="100" height="60" as="geometry"/>&#xa;        </mxCell>&#xa;        <mxCell id="Pp3vwaVYBHKoFkX73i0J-28" value="아니오" style="endArrow=classic;html=1;fontFamily=Tahoma;fontSize=9;entryX=0.49;entryY=0.028;entryDx=0;entryDy=0;entryPerimeter=0;exitX=0.5;exitY=0.964;exitDx=0;exitDy=0;exitPerimeter=0;" parent="jahqhl8VbFO5xxWAI4NQ-1" source="uLK2PnLPbNvofkBEclOP-0" target="Pp3vwaVYBHKoFkX73i0J-24" edge="1">&#xa;          <mxGeometry x="-0.2098" y="21" width="50" height="50" relative="1" as="geometry">&#xa;            <mxPoint x="123" y="313" as="sourcePoint"/>&#xa;            <mxPoint x="90" y="270.98" as="targetPoint"/>&#xa;            <mxPoint as="offset"/>&#xa;          </mxGeometry>&#xa;        </mxCell>&#xa;        <mxCell id="Pp3vwaVYBHKoFkX73i0J-29" value="성공" style="rounded=1;whiteSpace=wrap;html=1;fillColor=#d5e8d4;strokeColor=#82b366;" parent="jahqhl8VbFO5xxWAI4NQ-1" vertex="1">&#xa;          <mxGeometry x="20" y="625.5" width="120" height="60" as="geometry"/>&#xa;        </mxCell>&#xa;        <mxCell id="Pp3vwaVYBHKoFkX73i0J-30" value="예" style="endArrow=classic;html=1;exitX=0.497;exitY=0.982;exitDx=0;exitDy=0;exitPerimeter=0;entryX=0.5;entryY=0;entryDx=0;entryDy=0;fillColor=#f8cecc;strokeColor=#b85450;" parent="jahqhl8VbFO5xxWAI4NQ-1" source="Pp3vwaVYBHKoFkX73i0J-24" target="Pp3vwaVYBHKoFkX73i0J-29" edge="1">&#xa;          <mxGeometry x="-0.2105" y="13" width="50" height="50" relative="1" as="geometry">&#xa;            <mxPoint x="97" y="417" as="sourcePoint"/>&#xa;            <mxPoint x="90" y="475" as="targetPoint"/>&#xa;            <mxPoint as="offset"/>&#xa;          </mxGeometry>&#xa;        </mxCell>&#xa;        <mxCell id="Pp3vwaVYBHKoFkX73i0J-32" value="아니오" style="endArrow=classic;html=1;entryX=0.505;entryY=0.032;entryDx=0;entryDy=0;exitX=0.994;exitY=0.499;exitDx=0;exitDy=0;exitPerimeter=0;entryPerimeter=0;" parent="jahqhl8VbFO5xxWAI4NQ-1" source="Pp3vwaVYBHKoFkX73i0J-24" target="Pp3vwaVYBHKoFkX73i0J-2" edge="1">&#xa;          <mxGeometry x="-0.1534" y="12" width="50" height="50" relative="1" as="geometry">&#xa;            <mxPoint x="144" y="381.0000000000002" as="sourcePoint"/>&#xa;            <mxPoint x="197.5" y="337" as="targetPoint"/>&#xa;            <mxPoint as="offset"/>&#xa;            <Array as="points">&#xa;              <mxPoint x="195" y="381"/>&#xa;            </Array>&#xa;          </mxGeometry>&#xa;        </mxCell>&#xa;        <mxCell id="jahqhl8VbFO5xxWAI4NQ-9" value="mongoDB" style="swimlane;html=1;startSize=20;" parent="jahqhl8VbFO5xxWAI4NQ-0" vertex="1">&#xa;          <mxGeometry x="679" y="20" width="134" height="708" as="geometry"/>&#xa;        </mxCell>&#xa;        <mxCell id="uLK2PnLPbNvofkBEclOP-6" value="Portal" style="shape=cylinder;whiteSpace=wrap;html=1;boundedLbl=1;backgroundOutline=1;" parent="jahqhl8VbFO5xxWAI4NQ-9" vertex="1">&#xa;          <mxGeometry x="43" y="325" width="60" height="80" as="geometry"/>&#xa;        </mxCell>&#xa;        <mxCell id="jahqhl8VbFO5xxWAI4NQ-12" value="Logger" style="swimlane;html=1;startSize=20;" parent="jahqhl8VbFO5xxWAI4NQ-0" vertex="1">&#xa;          <mxGeometry x="813" y="20" width="160" height="708" as="geometry"/>&#xa;        </mxCell>&#xa;        <mxCell id="IzP-O1htUlhFbYvpEmA1-3" value="Logger Server" style="ellipse;shape=cloud;whiteSpace=wrap;html=1;" parent="jahqhl8VbFO5xxWAI4NQ-12" vertex="1">&#xa;          <mxGeometry x="20" y="22" width="120" height="80" as="geometry"/>&#xa;        </mxCell>&#xa;        <mxCell id="7AJ2RKkAXtvaKtOmxpjU-28" value="" style="endArrow=classic;html=1;exitX=1;exitY=0.5;exitDx=0;exitDy=0;entryX=0.5;entryY=0;entryDx=0;entryDy=0;" parent="jahqhl8VbFO5xxWAI4NQ-0" source="7AJ2RKkAXtvaKtOmxpjU-33" target="uLK2PnLPbNvofkBEclOP-6" edge="1">&#xa;          <mxGeometry width="50" height="50" relative="1" as="geometry">&#xa;            <mxPoint x="550" y="239" as="sourcePoint"/>&#xa;            <mxPoint x="600" y="189" as="targetPoint"/>&#xa;            <Array as="points">&#xa;              <mxPoint x="752" y="214"/>&#xa;            </Array>&#xa;          </mxGeometry>&#xa;        </mxCell>&#xa;        <mxCell id="7AJ2RKkAXtvaKtOmxpjU-29" value="분석 중으로 데이터 저장" style="text;html=1;resizable=0;points=[];align=center;verticalAlign=middle;labelBackgroundColor=#ffffff;" parent="7AJ2RKkAXtvaKtOmxpjU-28" vertex="1" connectable="0">&#xa;          <mxGeometry x="-0.1838" relative="1" as="geometry">&#xa;            <mxPoint x="-30" y="-10" as="offset"/>&#xa;          </mxGeometry>&#xa;        </mxCell>&#xa;        <mxCell id="B11rBlFkA7zlWi0Zcyjg-0" value="" style="endArrow=classic;html=1;exitX=0;exitY=0.5;exitDx=0;exitDy=0;entryX=0.5;entryY=1;entryDx=0;entryDy=0;rounded=1;edgeStyle=orthogonalEdgeStyle;dashed=1;" parent="jahqhl8VbFO5xxWAI4NQ-0" source="uLK2PnLPbNvofkBEclOP-6" target="7AJ2RKkAXtvaKtOmxpjU-33" edge="1">&#xa;          <mxGeometry width="50" height="50" relative="1" as="geometry">&#xa;            <mxPoint x="635" y="224" as="sourcePoint"/>&#xa;            <mxPoint x="762" y="355" as="targetPoint"/>&#xa;          </mxGeometry>&#xa;        </mxCell>&#xa;        <mxCell id="B11rBlFkA7zlWi0Zcyjg-1" value="배치 허용 정보&amp;nbsp;" style="text;html=1;resizable=0;points=[];align=center;verticalAlign=middle;labelBackgroundColor=#ffffff;" parent="B11rBlFkA7zlWi0Zcyjg-0" vertex="1" connectable="0">&#xa;          <mxGeometry x="-0.1838" relative="1" as="geometry">&#xa;            <mxPoint x="13" y="-12" as="offset"/>&#xa;          </mxGeometry>&#xa;        </mxCell>&#xa;        <mxCell id="IzP-O1htUlhFbYvpEmA1-0" value="BatchServer&lt;br&gt;Logger 수집" style="rounded=1;whiteSpace=wrap;html=1;" parent="3esrChGUVjocIgXQ-gZ4-1" vertex="1">&#xa;          <mxGeometry x="101" y="104" width="98" height="41" as="geometry"/>&#xa;        </mxCell>&#xa;        <mxCell id="IzP-O1htUlhFbYvpEmA1-4" value="" style="endArrow=classic;html=1;entryX=0.16;entryY=0.55;entryDx=0;entryDy=0;entryPerimeter=0;exitX=1;exitY=0.5;exitDx=0;exitDy=0;" parent="3esrChGUVjocIgXQ-gZ4-1" source="IzP-O1htUlhFbYvpEmA1-0" target="IzP-O1htUlhFbYvpEmA1-3" edge="1">&#xa;          <mxGeometry width="50" height="50" relative="1" as="geometry">&#xa;            <mxPoint y="783" as="sourcePoint"/>&#xa;            <mxPoint x="50" y="733" as="targetPoint"/>&#xa;          </mxGeometry>&#xa;        </mxCell>&#xa;        <mxCell id="IzP-O1htUlhFbYvpEmA1-5" value="00시 1일 1회 배치 실행" style="text;html=1;resizable=0;points=[];align=center;verticalAlign=middle;labelBackgroundColor=#ffffff;" parent="IzP-O1htUlhFbYvpEmA1-4" vertex="1" connectable="0">&#xa;          <mxGeometry x="-0.188" y="-1" relative="1" as="geometry">&#xa;            <mxPoint x="11" y="13" as="offset"/>&#xa;          </mxGeometry>&#xa;        </mxCell>&#xa;        <mxCell id="7AJ2RKkAXtvaKtOmxpjU-26" value="" style="endArrow=classic;html=1;exitX=0.5;exitY=1;exitDx=0;exitDy=0;entryX=0.5;entryY=0;entryDx=0;entryDy=0;" parent="3esrChGUVjocIgXQ-gZ4-1" source="IzP-O1htUlhFbYvpEmA1-0" target="7AJ2RKkAXtvaKtOmxpjU-25" edge="1">&#xa;          <mxGeometry width="50" height="50" relative="1" as="geometry">&#xa;            <mxPoint x="305" y="211" as="sourcePoint"/>&#xa;            <mxPoint x="355" y="161" as="targetPoint"/>&#xa;          </mxGeometry>&#xa;        </mxCell>&#xa;        <mxCell id="Pp3vwaVYBHKoFkX73i0J-15" value="아니오" style="endArrow=classic;html=1;exitX=0.485;exitY=0.05;exitDx=0;exitDy=0;exitPerimeter=0;entryX=0.5;entryY=1;entryDx=0;entryDy=0;fillColor=#f8cecc;strokeColor=#b85450;" parent="3esrChGUVjocIgXQ-gZ4-1" target="uLK2PnLPbNvofkBEclOP-22" edge="1">&#xa;          <mxGeometry x="-0.928" y="-22" width="50" height="50" relative="1" as="geometry">&#xa;            <mxPoint x="460" y="687.5" as="sourcePoint"/>&#xa;            <mxPoint x="501" y="400" as="targetPoint"/>&#xa;            <mxPoint as="offset"/>&#xa;            <Array as="points"/>&#xa;          </mxGeometry>&#xa;        </mxCell>&#xa;      </root>&#xa;    </mxGraphModel></diagram><diagram id="Uuo30Ce6gmsb5VGzGIzf" name="의도정확도">7V1bd5s4Hv80nLP7kByQuEiPxnGmu9vZpk13pt2XHmJjmxlicjC59WE++0pCstEFArbBTrKZhwEhZPhff/8LqgXHt0+/5NHd8tdsFqcWsGdPFrywAHBcGJD/0ZHnciQAsBxY5MmMT9oOXCc/Yz5o89H7ZBavpYlFlqVFcicPTrPVKp4W0liU59mjPG2epfKv3kWLWBu4nkapPvp7MiuWfNTx8fbChzhZLPlPI8Bf+DYSk/mbrJfRLHusDMGJBcd5lhXl0e3TOE4p8QRdvn7+nK+iB8//MFsUj/G36adP67Nyscsut2xeIY9Xxc5Lf8/9zz+/XD0EP6b+HD3Cf83XT/wW+yFK7zm9rMnYwhcWRtYktNClhVw6MrIt7FkTMo7ZgbhUEqZ4FtRePya3abQiZ+GyuE3JoEMOp8sknX2MnrN7+vjrIpr+Kc5CcpYXXGwIWWGYZ/erWUwfmp5tiE5P0ugmTkNy94JNGmdplpNLq4z94LrIsz9jMWgBaLO/zRXBfvpE8yRNKzPn7I+OZ6viMrpNUirtv8X5LFpFfJg/I+Knpt+J0mSxImNTwqeYXAxbMo4z+CHOi/ipIrackb/E2W1c5M9kCr8acL5xnXT56WNVwG0+uKwIdwAQ1yyuVYvN0lvJIQdceDoIkqMJ0kVURHdZXkRpSynRJEGnXqMMv0w9Ti6gkwsZqWX3RS3PqHYotEYuVTJEFA5VFLG8RH7KpsdhyK6SaZ6FyxFEFRT4KVWom5wcLehRRV+FBquc2Cob5cDjMini67toSq8+En8gM6glPzpLs+diSZw9RxdnYOCPb+/PHpBcn/3zj/Vs8vB78OPXx/+G364/njnYbBY9Zg1Dyg1U8gdRjqlEjWfEA/FTogDLbJGtonSyHVVs3HbOxyy748T+Iy6KZ64N0X2RyawgHMifv9H7zz1x+r167eKJL16ePQtzSpibrBZfOBFdNuMpKb6Je8nxd7asiyA/3y5FT54rJ1dxnhCKU1N3sVVY+vqK720nMevsPp/GDfO4OhI7sYgb17Mb5e3MPgc+kGXO4WzM4zQqkgf5BUwCxle/yhLyapulxTJ81TNxLlbI5vM1eXRVQDfPuLvMAt0CcwlF6BgSyiXtYzwvZHt+fPHAZulozfq9TD8ysCm0QsyBFhpZYcAMNzHuwuJz9EWmQSsk08gc20L2367jKJ8u/35+zuaFdJTcQ1eB1HXAS43xFQaZjH20visx+Dx5osyn8OuOXk/W2RdyJVotmHRIMOlrtMxuFZSEe3QXBMVISgY9V/cXJn/em78QIcNr8BdVb2GfB147h8HVGA6hxrilGnsvGXnbFrHqxhzbu1j5UZ5Hz5UJd9Tmr+udgOco8ByBqoi9OB/7ikSWD6DcfFCX0sSIilSXBkdYJdfCDpPqgOJQA/x80a751EyV9go5HPASA1dexROmNSG9F2+t3nsxa67nnHvHNmy2RuojGquXbJUAsnymgLKNMLZvYyZUe1drNgwocUx5oFJXsdBeT9b5CQ0/t74t5NHrSQaYUCQxRQLAMSRMgKsrFjyAYplfwZwBqEHrq9mIZkLJ2TSN1utkWhsM2jaUdcYlxrm11thYCgEx8juHgGxtdVC2CEeCC45v1PUmAOEFngwgBNCryI1nsMfeTjBDwwUgQIpH8OUlStrwuxoAhiMyP2Ih7ArXIpYqydewVD3c6AqPoILKPJ5HNuKdg4XHrlnhTgei9+6J/EZxt88dx1ezF85B5Ni3lVyLoyxRI3ydcXcg/w6EsFEt1OfqOl+8x9GBujBtuvvm2QJAoTORcgLTeT7ZYzlkIvSAj2AGst8otvaUbJ/nucfH1rALBBgQdTtWJ9Tdu90KWjr45nwAxUZYloK97dsAWV2TZp+U29q1EnEMsTEXe5BZbvrNEQWOLIs+r4HV+R5g+03z9wZNjTRU/Aot/eNtPoYnqNkBEUbqTsQlYDvbyzSrw+qZIeapHjYDSAvQBBB687ke3z+qPzK/hKkysXdIytKwnqXEpPilmNQURW4DVYylBI9YcIda5YHRdZswNDBavsY8NrTliAlrotJjFOq6SvCoSmDbKNRV3K8btAsDhvS3xkTYm/C3vJDzlf3MIOVYAFp64Jpq/TCpT/GUFY7/xUIl4ojG2+oDqClwjALhuFzuC8sSBu/ZsSU3+aZjLMeTEcqgZVkzaw+aZN14H55SraRJwW5pUoMW2y9o8bFUVICDDl6LMFt2HA4c0m1hJeWPdsydUggrQTVVXE/Ba4FjeyIbyBDPdv1dIF7vLsnQInTmL91/pOlikv7ngz+fO7+5n37w5MzRfJIZihNfU5baRqzlc1slZ4U44mtGJ9rgCTfRTX3DMka6KXAPQGAzezX6jr/vRzq1odyj/1mGpnSf/VlaE3n516d/DhQeBHrECQxMEGb74EzQ85/jfx+UCbMoRvOpkQlTFN/M+wzw5UoK9NFxaa0joesDC/w89qdGWs8CfGN3xy4drIsvt095vg48ByW2nrO9Pqxgz+dzUENs/8b3/B6J7SKZ2MRmGTJXg5Lb0EsxmRyW3mgam+l9gzzX61O4XVfpDdQ9Z1/ENkPNE2szP4HyQwOAbBFZ1QDNShwF5Ehmtx7WQcORk++1qA2/z20b7RK4yG3S7klJGDBL2MFDmcanbA5leDmo7Pwtv2NgkjJyts3CvDLE8mpv9+MGNYvmBIZWxb6yaGYO6kXAq6uDuteZF6OZa3KvCNxAv0844zgKuZH+7eGg/tVUfxC9tVz2S4UQnfRUXQBzvmUB1mUzyfwRywuILiBD8ppoIWQ5brEsTVUjkVmoaCFNMVz00+urcaotk+s5KuMlIIpOA6QazM5QZ6jm8Nr394JOIOfIDfFNAv5inRTUtGUMkz2G0FZSVo69YwIZInUptY23JoN8MDhWUwY5TTjmaJnkEwRk9TirhWTv22+0X9ehWRZkbEVHKlsQhAKXId/CYj4anwYE68GDKBAMePjozaJmFE30N3SY24b0+5z9MBklLr+XntfstaJullIZH4/5Nih9MQYpFtmwj4foVZE+4vF6YkpNb+a+3/C4WDWBYKdiWrViLSrUomLtdq5Yn7BBBTUR7kBf6agZUXvH/igIFejqtas0HwwnmKuORzAyfEOnoe2Lg6CK1LBeSujLxBgfGJriQfYx5qgM/fz2u3D1v7+SsNO2Isi6nYbD7rcEW0RhVATvWpIE1tFks49ddCPWbd6LBmjBgYFY2CBxwQGghvnddIj46orjsH0i6CU690bmV1T+7kBO8XlCSynujbp6CeJkk5bdqevAY5P3FfUTdCcvsI9N3lfUQbADeQ0ljWHJq1c0TrZhoDt5oaG5ri/ymvsxzLthGboX2efHZbM8HlkjLOebqjtdTmi+qbyFTMOuCEyQWLksEeLykzK+Py3eLDjmhZCRHpgTqhYyL/N4nfzk+I1yin/KR2Z7oeVd0DTWfZGtSyBNbxDbvqYsNg4pq5JplI74cEGzoPL3F2duBwnojL+V3WFFOqta0jLBb9CbQLRuZ20hEKG7k0Boe0y9Y4FwHEOD3LASYd5gdf+ugHfITKQz03GGZKZY2LybsZGZTFfLrSpDzL4Yrm4Mp1mB6n5zDda9+Xa+nZwoXrw/SQGGD7I2KGAYSTE3DzapvVFSfMHJsfhGj+1i0saD/N8LbHAiMBgOPKg46JkmJgWXTAq07ec2XoAoP1fp8uNLYvkv2fbo74+Hhvz0gVhITrf/tEVZYtj+AyFw8j8=</diagram></mxfile>